<?xml version="1.0" standalone="no"?><!DOCTYPE svg PUBLIC "-//W3C//DTD SVG 1.1//EN" "http://www.w3.org/Graphics/SVG/1.1/DTD/svg11.dtd">
<svg
    t="1695005403067"
    class="icon"
    viewBox="0 0 1024 1024"
    version="1.1"
    xmlns="http://www.w3.org/2000/svg"
    p-id="1417"
    xmlns:xlink="http://www.w3.org/1999/xlink"
    width="64"
    height="64">
    <path
        d="M518.656 810.8032a25.6 25.6 0 0 0 40.6528-30.72l-2.7648-3.6864L316.16 512l240.384-264.448a25.6 25.6 0 0 0 1.3824-32.768l-3.072-3.3792a25.6 25.6 0 0 0-32.768-1.3824l-3.4304 3.072-256 281.6a25.6 25.6 0 0 0-2.9184 30.5664l2.9184 3.8912 256 281.6z"
        p-id="1418"></path>
    <path
        d="M723.456 810.8032a25.6 25.6 0 0 0 40.6528-30.72l-2.7648-3.6864L520.96 512l240.384-264.448a25.6 25.6 0 0 0 1.3824-32.768l-3.072-3.3792a25.6 25.6 0 0 0-32.768-1.3824l-3.4304 3.072-256 281.6a25.6 25.6 0 0 0-2.9184 30.5664l2.9184 3.8912 256 281.6z"
        p-id="1419"></path>
    <path
        d="M518.656 810.8032a25.6 25.6 0 0 0 40.6528-30.72l-2.7648-3.6864L316.16 512l240.384-264.448a25.6 25.6 0 0 0 1.3824-32.768l-3.072-3.3792a25.6 25.6 0 0 0-32.768-1.3824l-3.4304 3.072-256 281.6a25.6 25.6 0 0 0-2.9184 30.5664l2.9184 3.8912 256 281.6z"
        p-id="1420"></path>
    <path
        d="M723.456 810.8032a25.6 25.6 0 0 0 40.6528-30.72l-2.7648-3.6864L520.96 512l240.384-264.448a25.6 25.6 0 0 0 1.3824-32.768l-3.072-3.3792a25.6 25.6 0 0 0-32.768-1.3824l-3.4304 3.072-256 281.6a25.6 25.6 0 0 0-2.9184 30.5664l2.9184 3.8912 256 281.6z"
        p-id="1421"></path>
</svg>
