<?xml version="1.0" standalone="no"?><!DOCTYPE svg PUBLIC "-//W3C//DTD SVG 1.1//EN" "http://www.w3.org/Graphics/SVG/1.1/DTD/svg11.dtd"><svg class="icon" width="200px" height="200.00px" viewBox="0 0 1024 1024" version="1.1" xmlns="http://www.w3.org/2000/svg"><path d="M810.8032 402.944a25.6 25.6 0 0 0-30.72-40.6528l-3.6864 2.7648L512 605.44 247.6032 365.056a25.6 25.6 0 0 0-32.768-1.3824l-3.3792 3.072a25.6 25.6 0 0 0-1.3824 32.768l3.072 3.4304 281.6 256a25.6 25.6 0 0 0 30.6176 2.9184l3.84-2.9184 281.6-256zM810.8032 402.944a25.6 25.6 0 0 0-30.72-40.6528l-3.6864 2.7648L512 605.44 247.6032 365.056a25.6 25.6 0 0 0-32.768-1.3824l-3.3792 3.072a25.6 25.6 0 0 0-1.3824 32.768l3.072 3.4304 281.6 256a25.6 25.6 0 0 0 30.6176 2.9184l3.84-2.9184 281.6-256z" /></svg>