<?xml version="1.0" standalone="no"?><!DOCTYPE svg PUBLIC "-//W3C//DTD SVG 1.1//EN" "http://www.w3.org/Graphics/SVG/1.1/DTD/svg11.dtd"><svg class="icon" width="200px" height="200.00px" viewBox="0 0 1024 1024" version="1.1" xmlns="http://www.w3.org/2000/svg"><path d="M353.834667 353.834667a42.666667 42.666667 0 0 1 56.32-3.541334l4.010666 3.541334 256 256a42.666667 42.666667 0 0 1-56.32 63.872l-4.010666-3.541334-256-256a42.666667 42.666667 0 0 1 0-60.330666zM670.165333 353.834667a42.666667 42.666667 0 0 0-56.32-3.541334l-4.010666 3.541334-256 256a42.666667 42.666667 0 0 0 56.32 63.872l4.010666-3.541334 256-256a42.666667 42.666667 0 0 0 0-60.330666z" /></svg>