<?xml version="1.0" encoding="UTF-8"?>
<svg width="20px" height="20px" viewBox="0 0 20 20" version="1.1" xmlns="http://www.w3.org/2000/svg" xmlns:xlink="http://www.w3.org/1999/xlink">
    <g>
        <g transform="translate(-926.000000, -558.000000)">
            <g transform="translate(926.000000, 558.000000)">
                <path
                    d="M10,0 C15.5228475,0 20,4.4771525 20,10 C20,15.5228475 15.5228475,20 10,20 C4.4771525,20 0,15.5228475 0,10 C0,4.4771525 4.4771525,0 10,0 Z M10,14 C9.44771525,14 9,14.4477153 9,15 C9,15.5522847 9.44771525,16 10,16 C10.5522847,16 11,15.5522847 11,15 C11,14.4477153 10.5522847,14 10,14 Z M10,4 C8.06700338,4 6.5,5.56700338 6.5,7.5 C6.5,7.77614237 6.72385763,8 7,8 C7.27614237,8 7.5,7.77614237 7.5,7.5 C7.5,6.11928813 8.61928813,5 10,5 C11.3807119,5 12.5,6.11928813 12.5,7.5 C12.5,8.88071187 11.3807119,10 10,10 C9.72385763,10 9.5,10.191878 9.5,10.4285714 L9.5,10.4285714 L9.5,12.5714286 L9.50805567,12.6484648 C9.55039163,12.8483927 9.75454011,13 10,13 C10.2761424,13 10.5,12.808122 10.5,12.5714286 L10.5,12.5714286 L10.5009499,10.9644196 C12.1966339,10.7213961 13.5,9.26290678 13.5,7.5 C13.5,5.56700338 11.9329966,4 10,4 Z"></path>
            </g>
        </g>
    </g>
</svg>
