<?xml version="1.0" encoding="UTF-8"?>
<svg width="14px" height="14px" viewBox="0 0 14 14" version="1.1" xmlns="http://www.w3.org/2000/svg" xmlns:xlink="http://www.w3.org/1999/xlink">
    <g transform="translate(-1043.000000, -7881.000000)">
        <g transform="translate(983.000000, 7873.000000)">
            <g transform="translate(60.000000, 8.000000)">
                <g transform="translate(-1.000000, 1.000000)">
                    <path
                        d="M6,0 L10.2928932,4.29289322 C10.6834175,4.68341751 10.6834175,5.31658249 10.2928932,5.70710678 C10.1053568,5.89464316 9.85100293,6 9.58578644,6 L2.41421356,6 C1.86192881,6 1.41421356,5.55228475 1.41421356,5 C1.41421356,4.73478351 1.5195704,4.4804296 1.70710678,4.29289322 L6,0 L6,0 Z"
                        transform="translate(6.000000, 3.000000) scale(1, -1) translate(-6.000000, -3.000000) "></path>
                    <path
                        d="M5,3 L7,3 L7,11.3089932 C7,11.6147301 6.75215123,11.8625789 6.44641429,11.8625789 C6.27007313,11.8625789 6.10428175,11.778566 6,11.6363636 L5.193595,10.5367205 C5.0678159,10.3652035 5,10.1580501 5,9.9453568 L5,3 L5,3 Z"></path>
                    <rect x="9" y="4" width="6" height="1" rx="0.5"></rect>
                    <rect x="9" y="7" width="4" height="1" rx="0.5"></rect>
                    <rect x="9" y="10" width="6" height="1" rx="0.5"></rect>
                </g>
            </g>
        </g>
    </g>
</svg>

