<?xml version="1.0" standalone="no"?><!DOCTYPE svg PUBLIC "-//W3C//DTD SVG 1.1//EN" "http://www.w3.org/Graphics/SVG/1.1/DTD/svg11.dtd"><svg class="icon" width="200px" height="200.00px" viewBox="0 0 1024 1024" version="1.1" xmlns="http://www.w3.org/2000/svg"><path d="M533.333 682.667v192h-64v-192h64z m-175.317-72.619l45.27 45.27L267.52 791.06l-45.248-45.226 135.744-135.787z m286.635 0l135.744 135.765-45.227 45.248-135.787-135.744 45.27-45.269zM330.667 480v64h-192v-64h192zM864 480v64H672v-64h192zM735.147 232.939l45.248 45.226L644.65 413.952l-45.27-45.27L735.147 232.94z m-467.627 0l135.765 135.744-45.269 45.269-135.744-135.765 45.227-45.248z m265.813-83.606v192h-64v-192h64z" /></svg>